<svg width="33" height="21" viewBox="0 0 33 21" fill="none" xmlns="http://www.w3.org/2000/svg">
<rect width="33" height="21" fill="#F5F5F5"/>
<g id="Layout - GNB / SNB" clip-path="url(#clip0_2_13)">
<rect width="1194" height="834" transform="translate(-1101 -29)" fill="white"/>
<g id="@Header">
<g id="@GNB">
<g id="#box-header">
<mask id="path-1-inside-1_2_13" fill="white">
<path d="M-1101 -29H93V51H-1101V-29Z"/>
</mask>
<path d="M-1101 -29H93V51H-1101V-29Z" fill="white"/>
<path d="M93 50H-1101V52H93V50Z" fill="#E1E1E1" mask="url(#path-1-inside-1_2_13)"/>
</g>
</g>
<g id="#btn-hamberger">
<path id="Union" fill-rule="evenodd" clip-rule="evenodd" d="M19.4042 1.33689C19.7596 1.41792 20.0388 1.57199 20.3963 1.78107C20.4414 1.80815 20.4869 1.83586 20.5331 1.86399C21.1379 2.23222 21.8593 2.67138 23.2073 2.67138C24.5564 2.67138 25.2783 2.23156 25.8829 1.86316C25.9286 1.83532 25.9737 1.80788 26.0183 1.78107L26.1137 1.72506C26.597 1.44074 26.8834 1.27226 27.6502 1.27226C28.4171 1.27226 28.7035 1.44075 29.1868 1.72507L29.2822 1.78107C29.3272 1.80814 29.3727 1.83585 29.4189 1.86398C30.0238 2.23222 30.7451 2.67138 32.0931 2.67138C32.6371 2.67138 33.0002 2.41719 33.0002 2.03525C33.0002 1.65375 32.6377 1.39912 32.0931 1.39912C31.3676 1.39912 31.0051 1.20837 30.4612 0.890305C30.4161 0.863234 30.3706 0.835522 30.3244 0.807396C29.7196 0.439158 28.9983 0 27.6502 0C26.3011 0 25.5792 0.439818 24.9746 0.808216C24.9289 0.83606 24.8838 0.863497 24.8392 0.890305L24.7438 0.946322C24.2605 1.23063 23.9742 1.39912 23.2073 1.39912C22.4818 1.39912 22.1193 1.20837 21.5754 0.890305C21.5304 0.863296 21.485 0.83565 21.4389 0.807591L21.4386 0.807397C20.8337 0.439159 20.1124 0 18.7644 0C18.75 0 18.7358 4.97289e-05 18.7216 0.000148565C18.7074 4.97264e-05 18.6931 0 18.6787 0C17.3297 0 16.6078 0.439815 16.0031 0.808212C15.9574 0.836058 15.9124 0.863496 15.8678 0.890305L15.7723 0.946324C15.2982 1.22528 15.0135 1.39273 14.2786 1.39894C13.5437 1.39273 13.2591 1.22527 12.7849 0.946305L12.6895 0.890305C12.6445 0.863234 12.5989 0.835523 12.5527 0.807397C11.9479 0.439159 11.2266 0 9.87855 0C9.8642 0 9.84993 4.97182e-05 9.83573 0.000148547C9.82153 4.97206e-05 9.80725 0 9.79291 0C8.44382 0 7.72193 0.439818 7.11726 0.808215C7.07155 0.83606 7.02652 0.863497 6.98194 0.890305L6.88651 0.946326C6.40324 1.23063 6.11685 1.39912 5.34999 1.39912C4.58309 1.39912 4.2967 1.23063 3.81343 0.946304L3.71805 0.890305C3.67298 0.863234 3.62746 0.835522 3.58127 0.807396C2.97644 0.439158 2.25512 0 0.907076 0C0.363083 0 0 0.254188 0 0.636131C0.000632505 1.01763 0.363083 1.27226 0.907076 1.27226C1.63261 1.27226 1.99506 1.46301 2.53902 1.78107C2.58409 1.80814 2.6296 1.83586 2.6758 1.86398C3.28063 2.23222 4.00195 2.67138 5.34999 2.67138C6.69907 2.67138 7.42097 2.23156 8.02564 1.86316C8.07134 1.83532 8.11638 1.80788 8.16096 1.78107L8.25638 1.72505C8.61428 1.5145 8.8642 1.36748 9.28125 1.30536V1.31972C9.43675 1.2906 9.61516 1.27441 9.83328 1.27246C10.5321 1.27945 10.8911 1.46896 11.4249 1.78107C11.4699 1.80813 11.5154 1.83583 11.5616 1.86393L11.5616 1.86398C12.1665 2.23222 12.8878 2.67138 14.2358 2.67138C14.2502 2.67138 14.2644 2.67133 14.2786 2.67123C14.2928 2.67133 14.3071 2.67138 14.3215 2.67138C15.6705 2.67138 16.3924 2.23156 16.9971 1.86316L16.9975 1.86293C17.0431 1.83517 17.088 1.80781 17.1324 1.78107L17.2279 1.72505C17.7015 1.44638 17.9861 1.27899 18.7193 1.27246C18.9538 1.27476 19.1831 1.29695 19.4042 1.33689Z" fill="black"/>
<path id="Union_2" fill-rule="evenodd" clip-rule="evenodd" d="M19.4042 7.533C19.7596 7.61404 20.0388 7.7681 20.3963 7.97719C20.4414 8.00426 20.4869 8.03197 20.5331 8.0601C21.1379 8.42834 21.8593 8.86749 23.2073 8.86749C24.5564 8.86749 25.2783 8.42767 25.8829 8.05928C25.9286 8.03143 25.9737 8.00399 26.0183 7.97719L26.1137 7.92117C26.597 7.63686 26.8834 7.46837 27.6502 7.46837C28.4171 7.46837 28.7035 7.63686 29.1868 7.92118L29.2822 7.97719C29.3272 8.00426 29.3727 8.03197 29.4189 8.06009C30.0238 8.42833 30.7451 8.86749 32.0931 8.86749C32.6371 8.86749 33.0002 8.6133 33.0002 8.23136C33.0002 7.84986 32.6377 7.59523 32.0931 7.59523C31.3676 7.59523 31.0051 7.40448 30.4612 7.08642C30.4161 7.05935 30.3706 7.03164 30.3244 7.00351C29.7196 6.63527 28.9983 6.19611 27.6502 6.19611C26.3011 6.19611 25.5792 6.63593 24.9746 7.00433C24.9289 7.03217 24.8838 7.05961 24.8392 7.08642L24.7438 7.14244C24.2605 7.42675 23.9742 7.59523 23.2073 7.59523C22.4818 7.59523 22.1193 7.40448 21.5754 7.08642C21.5304 7.05941 21.485 7.03176 21.4389 7.00371L21.4386 7.00351C20.8337 6.63527 20.1124 6.19611 18.7644 6.19611C18.75 6.19611 18.7358 6.19616 18.7216 6.19626C18.7074 6.19616 18.6931 6.19611 18.6787 6.19611C17.3297 6.19611 16.6078 6.63593 16.0031 7.00433C15.9574 7.03217 15.9124 7.05961 15.8678 7.08642L15.7723 7.14244C15.2982 7.42139 15.0135 7.58885 14.2786 7.59505C13.5437 7.58885 13.2591 7.42139 12.7849 7.14242L12.6895 7.08642C12.6445 7.05935 12.5989 7.03164 12.5527 7.00351C11.9479 6.63527 11.2266 6.19611 9.87855 6.19611C9.8642 6.19611 9.84993 6.19616 9.83573 6.19626C9.82153 6.19616 9.80725 6.19611 9.79291 6.19611C8.44382 6.19611 7.72193 6.63593 7.11726 7.00433C7.07155 7.03217 7.02652 7.05961 6.98194 7.08642L6.88651 7.14244C6.40324 7.42675 6.11685 7.59523 5.34999 7.59523C4.58309 7.59523 4.2967 7.42674 3.81343 7.14242L3.71805 7.08642C3.67298 7.05935 3.62746 7.03164 3.58127 7.00351C2.97644 6.63527 2.25512 6.19611 0.907076 6.19611C0.363083 6.19611 0 6.4503 0 6.83224C0.000632505 7.21374 0.363083 7.46837 0.907076 7.46837C1.63261 7.46837 1.99506 7.65912 2.53902 7.97719C2.58409 8.00426 2.6296 8.03197 2.6758 8.06009C3.28063 8.42833 4.00195 8.86749 5.34999 8.86749C6.69907 8.86749 7.42097 8.42768 8.02564 8.05928C8.07134 8.03143 8.11638 8.004 8.16096 7.97719L8.25638 7.92117C8.61428 7.71062 8.8642 7.56359 9.28125 7.50147V7.51584C9.43675 7.48671 9.61516 7.47052 9.83328 7.46857C10.5321 7.47556 10.8911 7.66508 11.4249 7.97719C11.4699 8.00424 11.5154 8.03194 11.5616 8.06005L11.5616 8.0601C12.1665 8.42833 12.8878 8.86749 14.2358 8.86749C14.2502 8.86749 14.2644 8.86744 14.2786 8.86734C14.2928 8.86744 14.3071 8.86749 14.3215 8.86749C15.6705 8.86749 16.3924 8.42767 16.9971 8.05928L16.9975 8.05905C17.0431 8.03128 17.088 8.00392 17.1324 7.97719L17.2279 7.92117C17.7015 7.6425 17.9861 7.4751 18.7193 7.46857C18.9538 7.47087 19.1831 7.49306 19.4042 7.533Z" fill="black"/>
<path id="Union_3" fill-rule="evenodd" clip-rule="evenodd" d="M19.4041 13.7291C19.7596 13.8101 20.0387 13.9642 20.3963 14.1733C20.4414 14.2004 20.4869 14.2281 20.5331 14.2562C21.1379 14.6245 21.8593 15.0636 23.2073 15.0636C24.5564 15.0636 25.2783 14.6238 25.8829 14.2554C25.9286 14.2275 25.9737 14.2001 26.0183 14.1733L26.1137 14.1173C26.597 13.833 26.8834 13.6645 27.6502 13.6645C28.4171 13.6645 28.7035 13.833 29.1868 14.1173L29.2822 14.1733C29.3272 14.2004 29.3727 14.2281 29.4189 14.2562C30.0238 14.6244 30.7451 15.0636 32.0931 15.0636C32.6371 15.0636 33.0002 14.8094 33.0002 14.4275C33.0002 14.046 32.6377 13.7913 32.0931 13.7913C31.3676 13.7913 31.0051 13.6006 30.4612 13.2825C30.4161 13.2555 30.3706 13.2278 30.3244 13.1996C29.7196 12.8314 28.9983 12.3922 27.6502 12.3922C26.3011 12.3922 25.5792 12.832 24.9746 13.2004C24.9289 13.2283 24.8838 13.2557 24.8392 13.2825L24.7438 13.3386C24.2605 13.6229 23.9742 13.7913 23.2073 13.7913C22.4818 13.7913 22.1193 13.6006 21.5754 13.2825C21.5304 13.2555 21.485 13.2279 21.4389 13.1998L21.4386 13.1996C20.8337 12.8314 20.1124 12.3922 18.7644 12.3922C18.7501 12.3922 18.7359 12.3923 18.7218 12.3924C18.7075 12.3923 18.6932 12.3922 18.6787 12.3922C17.3297 12.3922 16.6078 12.832 16.0031 13.2004C15.9574 13.2283 15.9124 13.2557 15.8678 13.2825L15.7723 13.3386C15.2981 13.6175 15.0135 13.785 14.2784 13.7912C13.5436 13.7849 13.259 13.6175 12.7849 13.3385L12.6895 13.2825C12.6445 13.2555 12.5989 13.2278 12.5527 13.1996C11.9479 12.8314 11.2266 12.3922 9.87855 12.3922C9.8643 12.3922 9.85011 12.3923 9.836 12.3924C9.82171 12.3923 9.80734 12.3922 9.79291 12.3922C8.44382 12.3922 7.72193 12.832 7.11726 13.2004C7.07155 13.2283 7.02652 13.2557 6.98194 13.2825L6.88651 13.3386C6.40324 13.6229 6.11685 13.7913 5.34999 13.7913C4.58309 13.7913 4.2967 13.6229 3.81343 13.3385L3.71805 13.2825C3.67298 13.2555 3.62746 13.2277 3.58127 13.1996C2.97644 12.8314 2.25512 12.3922 0.907076 12.3922C0.363083 12.3922 0 12.6464 0 13.0284C0.000632505 13.4099 0.363083 13.6645 0.907076 13.6645C1.63261 13.6645 1.99506 13.8552 2.53902 14.1733C2.58409 14.2004 2.6296 14.2281 2.6758 14.2562C3.28063 14.6244 4.00195 15.0636 5.34999 15.0636C6.69907 15.0636 7.42097 14.6238 8.02564 14.2554C8.07134 14.2275 8.11638 14.2001 8.16096 14.1733L8.25638 14.1173C8.61428 13.9067 8.8642 13.7597 9.28125 13.6976V13.712C9.4368 13.6828 9.61527 13.6666 9.83348 13.6647C10.5321 13.6717 10.8911 13.8612 11.4249 14.1733C11.4699 14.2004 11.5154 14.2281 11.5616 14.2562L11.5616 14.2562C12.1665 14.6244 12.8878 15.0636 14.2358 15.0636C14.2501 15.0636 14.2643 15.0636 14.2784 15.0635C14.2927 15.0636 14.307 15.0636 14.3215 15.0636C15.6705 15.0636 16.3924 14.6238 16.9971 14.2554L16.9975 14.2552C17.0431 14.2274 17.088 14.2 17.1324 14.1733L17.2279 14.1173C17.7016 13.8386 17.9861 13.6712 18.7195 13.6647C18.9539 13.667 19.1831 13.6892 19.4041 13.7291Z" fill="black"/>
<path id="Union_4" fill-rule="evenodd" clip-rule="evenodd" d="M19.4042 19.6655C19.7596 19.7465 20.0388 19.9006 20.3963 20.1097C20.4414 20.1368 20.4869 20.1645 20.5331 20.1926C21.1379 20.5608 21.8593 21 23.2073 21C24.5564 21 25.2783 20.5602 25.8829 20.1918C25.9286 20.1639 25.9737 20.1365 26.0183 20.1097L26.1137 20.0537C26.597 19.7694 26.8834 19.6009 27.6502 19.6009C28.4171 19.6009 28.7035 19.7694 29.1868 20.0537L29.2822 20.1097C29.3272 20.1368 29.3727 20.1645 29.4189 20.1926C30.0238 20.5608 30.7451 21 32.0931 21C32.6371 21 33.0002 20.7458 33.0002 20.3639C33.0002 19.9824 32.6377 19.7277 32.0931 19.7277C31.3676 19.7277 31.0051 19.537 30.4612 19.2189C30.4161 19.1919 30.3706 19.1641 30.3244 19.136C29.7196 18.7678 28.9983 18.3286 27.6502 18.3286C26.3011 18.3286 25.5792 18.7684 24.9746 19.1368C24.9289 19.1647 24.8838 19.1921 24.8392 19.2189L24.7438 19.2749C24.2605 19.5593 23.9742 19.7277 23.2073 19.7277C22.4818 19.7277 22.1193 19.537 21.5754 19.2189C21.5304 19.1919 21.485 19.1643 21.4389 19.1362L21.4386 19.136C20.8337 18.7678 20.1124 18.3286 18.7644 18.3286C18.75 18.3286 18.7358 18.3287 18.7216 18.3288C18.7074 18.3287 18.6931 18.3286 18.6787 18.3286C17.3297 18.3286 16.6078 18.7684 16.0031 19.1368C15.9574 19.1647 15.9124 19.1921 15.8678 19.2189L15.7723 19.2749C15.2982 19.5539 15.0135 19.7214 14.2786 19.7276C13.5437 19.7214 13.2591 19.5539 12.7849 19.2749L12.6895 19.2189C12.6445 19.1919 12.5989 19.1641 12.5527 19.136C11.9479 18.7678 11.2266 18.3286 9.87855 18.3286C9.8642 18.3286 9.84993 18.3287 9.83573 18.3288C9.82153 18.3287 9.80725 18.3286 9.79291 18.3286C8.44382 18.3286 7.72193 18.7684 7.11726 19.1368C7.07155 19.1647 7.02652 19.1921 6.98194 19.2189L6.88651 19.2749C6.40324 19.5593 6.11685 19.7277 5.34999 19.7277C4.58309 19.7277 4.2967 19.5592 3.81343 19.2749L3.71805 19.2189C3.67298 19.1919 3.62746 19.1641 3.58127 19.136C2.97644 18.7678 2.25512 18.3286 0.907076 18.3286C0.363083 18.3286 0 18.5828 0 18.9648C0.000632505 19.3463 0.363083 19.6009 0.907076 19.6009C1.63261 19.6009 1.99506 19.7916 2.53902 20.1097C2.58409 20.1368 2.6296 20.1645 2.6758 20.1926C3.28063 20.5608 4.00195 21 5.34999 21C6.69907 21 7.42097 20.5602 8.02564 20.1918C8.07134 20.1639 8.11638 20.1365 8.16096 20.1097L8.25638 20.0537C8.61428 19.8431 8.8642 19.6961 9.28125 19.634V19.6483C9.43675 19.6192 9.61516 19.603 9.83328 19.6011C10.5321 19.6081 10.8911 19.7976 11.4249 20.1097C11.4699 20.1368 11.5154 20.1644 11.5616 20.1926L11.5616 20.1926C12.1665 20.5608 12.8878 21 14.2358 21C14.2502 21 14.2644 20.9999 14.2786 20.9999C14.2928 20.9999 14.3071 21 14.3215 21C15.6705 21 16.3924 20.5602 16.9971 20.1918L16.9975 20.1916C17.0431 20.1638 17.088 20.1364 17.1324 20.1097L17.2279 20.0537C17.7015 19.775 17.9861 19.6076 18.7193 19.6011C18.9538 19.6034 19.1831 19.6256 19.4042 19.6655Z" fill="black"/>
</g>
</g>
<g id="@SNB">
<g id="@SNB-&#235;&#139;&#164;&#236;&#157;&#180;&#236;&#150;&#180;&#235;&#166;&#172;">
<g id="#bg-snb" filter="url(#filter0_d_2_13)">
<path d="M-1101 50H93V147H-1101V50Z" fill="white"/>
</g>
</g>
</g>
</g>
<defs>
<filter id="filter0_d_2_13" x="-1146" y="15" width="1284" height="187" filterUnits="userSpaceOnUse" color-interpolation-filters="sRGB">
<feFlood flood-opacity="0" result="BackgroundImageFix"/>
<feColorMatrix in="SourceAlpha" type="matrix" values="0 0 0 0 0 0 0 0 0 0 0 0 0 0 0 0 0 0 127 0" result="hardAlpha"/>
<feMorphology radius="5" operator="dilate" in="SourceAlpha" result="effect1_dropShadow_2_13"/>
<feOffset dy="10"/>
<feGaussianBlur stdDeviation="20"/>
<feComposite in2="hardAlpha" operator="out"/>
<feColorMatrix type="matrix" values="0 0 0 0 0 0 0 0 0 0 0 0 0 0 0 0 0 0 0.04 0"/>
<feBlend mode="normal" in2="BackgroundImageFix" result="effect1_dropShadow_2_13"/>
<feBlend mode="normal" in="SourceGraphic" in2="effect1_dropShadow_2_13" result="shape"/>
</filter>
<clipPath id="clip0_2_13">
<rect width="1194" height="834" fill="white" transform="translate(-1101 -29)"/>
</clipPath>
</defs>
</svg>
