<svg width="150" height="22" viewBox="0 0 150 22" fill="none" xmlns="http://www.w3.org/2000/svg">
<path fill-rule="evenodd" clip-rule="evenodd" d="M76.6005 13.6784C77.7807 14.0016 79.1917 14.2411 80.9967 14.3211L85.427 14.14C86.307 14.0084 87.0663 13.8221 87.7411 13.601C89.1006 13.1558 90.1438 12.5622 91.1829 11.9419L91.3899 11.818L91.4553 11.7788L91.6213 11.6793C91.5445 11.3093 91.4468 10.9535 91.3283 10.612C91.011 9.67867 90.5257 8.904 89.8723 8.288C88.547 7.01867 86.671 6.384 84.2443 6.384C81.8177 6.384 79.9417 7.01867 78.6163 8.288C77.2723 9.576 76.6003 11.3493 76.6003 13.608L76.6005 13.6784ZM121.528 13.664V13.718C120.718 13.8023 119.788 13.85 118.707 13.85C115.422 13.85 113.142 13.4096 111.3 12.8065C111.279 12.7995 111.284 12.768 111.307 12.768H117.188C117.169 11.9467 117.113 11.2653 117.02 10.724C116.926 10.1827 116.814 9.73467 116.684 9.38C116.441 8.80133 116.096 8.39067 115.648 8.148C115.218 7.90533 114.649 7.784 113.94 7.784C112.558 7.784 111.653 8.26 111.224 9.212C111.018 9.66 110.878 10.1733 110.804 10.752C110.734 11.2707 110.697 11.8854 110.692 12.5963C109.885 12.3027 109.157 11.9812 108.453 11.659C108.286 11.5824 108.12 11.5057 107.954 11.429C107.538 11.237 107.124 11.0458 106.701 10.8614C107.034 9.85605 107.571 8.99824 108.312 8.288C109.637 7.01867 111.513 6.384 113.94 6.384C116.366 6.384 118.242 7.01867 119.568 8.288C120.221 8.904 120.706 9.67867 121.024 10.612C121.341 11.5267 121.509 12.544 121.528 13.664ZM127.448 11.6118C127.786 11.3962 128.132 11.1752 128.506 10.9602V9.8C129.626 8.456 131.026 7.784 132.706 7.784C133.322 7.784 133.864 7.87733 134.33 8.064C134.816 8.232 135.338 8.47467 135.898 8.792L136.514 7.56C135.674 7.056 134.946 6.73867 134.33 6.608C133.733 6.45867 133.22 6.384 132.79 6.384C131.95 6.384 131.194 6.50533 130.522 6.748C129.869 6.99067 129.197 7.42933 128.506 8.064C128.469 7.63467 128.366 7.27067 128.198 6.972C128.049 6.67333 127.75 6.524 127.302 6.524H121.982V7.224C123.438 7.224 124.166 7.85867 124.166 9.128V13.2206C124.216 13.206 124.264 13.1912 124.312 13.1763C125.582 12.7811 126.436 12.2575 127.307 11.7019L127.448 11.6118ZM137.309 9.38705C138.599 9.45545 139.677 9.61531 140.614 9.83933C140.539 9.67025 140.501 9.4798 140.501 9.268C140.501 8.83867 140.753 8.49333 141.257 8.232C141.78 7.952 142.536 7.812 143.525 7.812C144.552 7.812 145.392 7.93333 146.045 8.176C146.699 8.4 147.221 8.60533 147.613 8.792L148.145 7.532C147.828 7.34533 147.473 7.18667 147.081 7.056C146.689 6.90667 146.279 6.78533 145.849 6.692C145.439 6.59867 145.019 6.524 144.589 6.468C144.179 6.412 143.796 6.384 143.441 6.384C142.732 6.384 142.004 6.44 141.257 6.552C140.529 6.64533 139.857 6.85067 139.241 7.168C138.644 7.46667 138.149 7.88667 137.757 8.428C137.556 8.70588 137.407 9.02556 137.309 9.38705ZM94.5756 10.1731C95.8261 9.70125 97.2934 9.38513 99.2188 9.35275C100.265 8.30692 101.529 7.784 103.011 7.784C103.627 7.784 104.168 7.87733 104.635 8.064C105.12 8.232 105.643 8.47467 106.203 8.792L106.819 7.56C105.979 7.056 105.251 6.73867 104.635 6.608C104.038 6.45867 103.524 6.384 103.095 6.384C102.255 6.384 101.499 6.50533 100.827 6.748C100.174 6.99067 99.5018 7.42933 98.8111 8.064C98.7738 7.63467 98.6711 7.27067 98.5031 6.972C98.3538 6.67333 98.0551 6.524 97.6071 6.524H92.2871V7.224C93.7431 7.224 94.4711 7.85867 94.4711 9.128V10.2131C94.5058 10.1997 94.5406 10.1863 94.5756 10.1731ZM73.9533 2.184V12.7021C73.7434 12.6065 73.5384 12.51 73.3362 12.4134C73.1772 12.3375 73.0193 12.2612 72.8616 12.185C71.8464 11.6943 70.8413 11.2085 69.6133 10.8602V8.736C68.6986 8.10133 67.7839 7.784 66.8693 7.784C65.6933 7.784 64.8906 8.30667 64.4613 9.352C64.4239 9.50133 64.3866 9.66933 64.3493 9.856C64.3194 9.99043 64.2895 10.1727 64.2596 10.4027C62.6209 10.5295 61.2628 10.8734 60.0702 11.3077C60.3652 10.1162 60.9143 9.119 61.7173 8.316C63.0053 7.028 64.7226 6.384 66.8693 6.384C67.7653 6.384 68.6799 6.68267 69.6133 7.28V2.604C69.6133 1.33467 68.8853 0.699999 67.4293 0.699999V0H72.8613C73.5892 0 73.9533 0.728 73.9533 2.184ZM57.8064 11.424V12.2914C57.7204 12.3335 57.6351 12.3756 57.5502 12.4177C57.3838 12.5002 57.2203 12.582 57.0589 12.6627C55.813 13.286 54.7002 13.8427 53.4384 14.1346V12.544C53.4384 10.8453 53.2144 9.632 52.7664 8.904C52.3184 8.15733 51.6464 7.784 50.7504 7.784C49.7984 7.784 48.8651 8.11067 47.9504 8.764C47.9691 8.95067 47.9784 9.128 47.9784 9.296C47.9971 9.464 48.0064 9.632 48.0064 9.8V13.751C47.1052 13.4582 46.2263 13.0857 45.3113 12.698L45.2017 12.6515C44.7022 12.4399 44.1929 12.2254 43.6664 12.0217V9.128C43.6664 7.85867 42.9384 7.224 41.4824 7.224V6.524H46.8024C47.1944 6.524 47.4838 6.664 47.6704 6.944C47.7638 7.09333 47.8198 7.224 47.8384 7.336C48.3424 7.01867 48.8744 6.78533 49.4344 6.636C50.0131 6.468 50.5451 6.384 51.0304 6.384C53.2518 6.384 54.9318 6.804 56.0704 7.644C57.2278 8.46533 57.8064 9.72533 57.8064 11.424ZM38.9616 8.316C39.7231 9.06669 40.2628 9.99492 40.5805 11.1007C39.7723 10.9441 38.9114 10.85 37.9813 10.85C37.4316 10.85 36.915 10.8828 36.4267 10.9421C36.4225 10.9156 36.4181 10.8895 36.4136 10.864C36.3762 10.528 36.3202 10.2387 36.2456 9.996C36.1709 9.75333 36.0869 9.51067 35.9936 9.268C35.6016 8.27867 34.7149 7.784 33.3336 7.784C31.7842 7.784 30.8229 8.39067 30.4496 9.604C30.3936 9.86533 30.3376 10.108 30.2816 10.332C30.2442 10.556 30.2069 10.8173 30.1696 11.116C30.1509 11.396 30.1322 11.7507 30.1136 12.18C30.0999 12.4811 30.0912 12.8425 30.0876 13.2641C28.7919 13.8822 27.5424 14.35 25.9385 14.35C25.8702 14.35 25.8015 14.3492 25.7323 14.3475C25.7225 14.1517 25.7176 13.9518 25.7176 13.748C25.7176 11.4147 26.3802 9.604 27.7056 8.316C28.9936 7.028 30.8696 6.384 33.3336 6.384C35.7602 6.384 37.6362 7.028 38.9616 8.316ZM22.624 8.624L20.8964 13.4083C20.5176 13.2966 20.134 13.1789 19.7464 13.0575L21.224 8.96C21.4107 8.43733 21.4667 8.07333 21.392 7.868C21.3547 7.7 21.28 7.55067 21.168 7.42C21.056 7.28933 20.776 7.224 20.328 7.224V6.524H24.696V7.224C24.2853 7.24267 23.8933 7.336 23.52 7.504C23.1653 7.65333 22.8667 8.02667 22.624 8.624ZM15.54 8.512L16.8928 12.1492C15.2087 11.6228 13.5163 11.1452 11.96 10.9469L11.172 9.072C10.8547 8.21333 10.5093 7.69067 10.136 7.504C10.0053 7.41067 9.80933 7.34533 9.548 7.308C9.30533 7.252 9.02533 7.224 8.708 7.224V6.524H13.916C14.3267 6.524 14.644 6.692 14.868 7.028C15.092 7.364 15.316 7.85867 15.54 8.512ZM6.832 8.512L7.826 11.2289C6.508 11.5827 5.2838 12.1339 4.14868 12.6603L3.94201 12.7563L2.464 9.072C2.27733 8.624 2.09067 8.27867 1.904 8.036C1.736 7.77467 1.57733 7.59733 1.428 7.504C1.29733 7.41067 1.10133 7.34533 0.84 7.308C0.597333 7.252 0.317333 7.224 0 7.224V6.524H2.59H5.18C5.59067 6.524 5.908 6.692 6.132 7.028C6.356 7.364 6.58933 7.85867 6.832 8.512ZM87.4923 12.768C87.4737 11.9467 87.4177 11.2653 87.3243 10.724C87.231 10.1827 87.119 9.73467 86.9883 9.38C86.7457 8.80133 86.4003 8.39067 85.9523 8.148C85.523 7.90533 84.9537 7.784 84.2443 7.784C82.863 7.784 81.9577 8.26 81.5283 9.212C81.323 9.66 81.183 10.1733 81.1083 10.752C81.0337 11.312 80.9963 11.984 80.9963 12.768H87.4923Z" fill="black"/>
<path fill-rule="evenodd" clip-rule="evenodd" d="M59.8146 13.4031C61.0495 12.9313 62.4599 12.5502 64.1813 12.409V11.76L64.1831 11.7134C62.4553 11.8668 61.0717 12.2828 59.8409 12.7917C59.8265 12.9912 59.8177 13.195 59.8146 13.4031ZM69.6133 12.8602C70.8413 13.2085 71.8464 13.6943 72.8616 14.185C73.0193 14.2612 73.1772 14.3375 73.3362 14.4134C73.5384 14.51 73.7434 14.6065 73.9533 14.7021V14.1228C73.5428 13.9477 73.1541 13.7671 72.776 13.5866C72.6177 13.511 72.462 13.4358 72.3077 13.3613L72.3028 13.3589C71.4136 12.9296 70.5759 12.5251 69.6133 12.2176V12.8602ZM57.8064 14.2914C57.7204 14.3335 57.6351 14.3756 57.5502 14.4177C57.3838 14.5002 57.2203 14.582 57.0589 14.6627C55.813 15.286 54.7002 15.8427 53.4384 16.1346V15.463C55.0004 15.1511 56.3095 14.494 57.6167 13.8378L57.8064 13.7426V14.2914ZM48.0064 15.751V15.1123C46.9043 14.7857 45.8789 14.3508 44.8741 13.9246L44.6946 13.8485C44.3517 13.7032 44.0099 13.5593 43.6664 13.4204V14.0217C44.1929 14.2254 44.7022 14.4399 45.2017 14.6515L45.3113 14.698C46.2263 15.0857 47.1052 15.4582 48.0064 15.751ZM40.9076 13.168C40.8962 12.9358 40.8778 12.7092 40.8524 12.4882C39.9635 12.2786 39.0199 12.15 37.9813 12.15C37.4705 12.15 36.9922 12.1811 36.5403 12.2377C36.5541 12.4446 36.5644 12.6739 36.5712 12.9254C37.0167 12.8767 37.4855 12.85 37.9813 12.85C39.038 12.85 40.0053 12.9715 40.9076 13.168ZM30.1098 15.2534C30.1031 15.0822 30.0978 14.8957 30.0939 14.6938C28.8839 15.2292 27.5624 15.65 25.9385 15.65L25.8805 15.6498C25.9248 15.8904 25.9782 16.1235 26.0406 16.3494C27.6048 16.3299 28.8338 15.8636 30.1098 15.2534ZM20.245 15.2121L20.4538 14.6338C20.0708 14.5204 19.6873 14.4022 19.3049 14.282L19.0991 14.8529C19.4845 14.9757 19.8668 15.0962 20.245 15.2121ZM17.7359 14.4161L17.4679 13.6954C15.3141 13.0068 13.2705 12.3829 11.5059 12.2023L11.2374 12.8751C11.6406 12.9031 12.055 12.9536 12.478 13.0221L12.7976 13.077C14.382 13.3641 16.0748 13.8851 17.7359 14.4161ZM4.61894 14.4437C5.81506 13.898 7.10666 13.3583 8.49891 13.0682L8.27445 12.4547C7.05444 12.7697 5.87749 13.2915 4.69564 13.8397C4.60623 13.8811 4.5166 13.9229 4.42678 13.9647L4.61894 14.4437ZM76.8054 15.733C76.7593 15.5084 76.721 15.279 76.6905 15.0449C77.8829 15.3386 79.2886 15.5517 81.0283 15.6235C81.0352 15.7617 81.0432 15.8925 81.0523 16.016C81.0605 16.1224 81.0692 16.2253 81.0783 16.3246C79.338 16.2526 77.9616 16.0332 76.8054 15.733ZM110.694 14.597C109.886 14.3032 109.158 13.9815 108.453 13.659C108.286 13.5824 108.12 13.5057 107.954 13.429C107.419 13.1818 106.886 12.9358 106.334 12.7042C106.35 12.5153 106.372 12.3303 106.399 12.1491C106.737 12.2995 107.075 12.4553 107.418 12.6137C107.581 12.689 107.746 12.7649 107.912 12.841C108.137 12.9437 108.338 13.0394 108.529 13.1303C109.188 13.4433 109.731 13.701 110.694 14L110.692 14.14C110.692 14.2977 110.692 14.4501 110.694 14.597ZM128.506 13C128.331 13.1112 128.132 13.2349 127.935 13.3572L127.934 13.3579L127.933 13.3584L127.932 13.3591L127.931 13.3596C127.707 13.4986 127.486 13.6356 127.307 13.75C126.436 14.3056 125.582 14.7811 124.312 15.1763C124.264 15.1912 124.216 15.206 124.166 15.2206V14.5702C124.35 14.5217 124.528 14.4708 124.699 14.4175C126.139 13.9689 127.113 13.3675 128.006 12.7981L128.128 12.7205L128.13 12.7189L128.136 12.7149C128.261 12.6354 128.384 12.557 128.506 12.4798V13ZM149.002 15.3263C148.808 15.2779 148.621 15.2268 148.441 15.1736C147.086 14.7725 146.082 14.2391 145.045 13.6783L144.953 13.6286C143.946 13.0833 142.891 12.5124 141.501 12.0822C140.358 11.7282 139.004 11.4737 137.263 11.3847C137.211 11.1638 137.181 10.9295 137.172 10.6817C138.831 10.7648 140.085 11.0046 141.117 11.3241C142.383 11.716 143.341 12.2343 144.36 12.7859L144.426 12.8217C145.469 13.3859 146.576 13.9775 148.073 14.4202C148.195 14.4564 148.32 14.4916 148.447 14.5256L148.453 14.532C148.686 14.7812 148.869 15.046 149.002 15.3263ZM98.8111 11.3641C97.0838 11.4313 95.7363 11.7351 94.5756 12.1731L94.5377 12.1875L94.4711 12.2131V11.6199C94.6537 11.5394 94.841 11.4624 95.0346 11.3894C96.0456 11.0079 97.2399 10.7311 98.8111 10.6651V11.3641ZM91.8101 13.4119C91.8122 13.2941 91.8145 13.172 91.8086 13.0824C91.211 13.4387 90.5834 13.8027 89.8775 14.14H90.8988C90.9523 14.14 91.0047 14.1257 91.0515 14.0999C91.1117 14.0666 91.1922 14.0232 91.274 13.9791C91.4064 13.9078 91.542 13.8346 91.6 13.8C91.617 13.7898 91.6329 13.7767 91.6526 13.7605C91.678 13.7395 91.7099 13.7133 91.7589 13.681C91.7892 13.6612 91.808 13.6276 91.8079 13.5914C91.8078 13.5365 91.8089 13.4748 91.8101 13.4119Z" fill="black"/>
<path d="M18.3125 15.9663L18.6577 16.0768C19.0379 16.1982 19.4201 16.3192 19.8027 16.4369L19.712 16.688L18.144 20.692H17.08C16.5947 20.692 16.1933 20.5053 15.876 20.132C15.5773 19.7587 15.3067 19.2827 15.064 18.704L13.3794 14.5217C14.8223 14.8474 16.3889 15.3489 18.009 15.8689L18.048 15.8814L18.3125 15.9663Z" fill="#FF007A"/>
<path d="M11.9712 14.2591C11.5411 14.1986 11.1259 14.1613 10.7279 14.1522L9.772 16.548L8.95076 14.3033C7.62866 14.5522 6.36575 15.0751 5.10355 15.6517L6.328 18.704C6.57067 19.2827 6.84133 19.7587 7.14 20.132C7.45733 20.5053 7.868 20.692 8.372 20.692H9.436L10.976 16.688L11.9712 14.2591Z" fill="#FF007A"/>
<path d="M37.9813 14.15C37.4848 14.15 37.019 14.1794 36.5782 14.233C36.5714 14.7141 36.5538 15.1311 36.5256 15.484C36.5069 15.9507 36.4696 16.352 36.4136 16.688C36.3762 17.0053 36.3202 17.2853 36.2456 17.528C36.1709 17.752 36.0869 17.9853 35.9936 18.228C35.6016 19.2173 34.7149 19.712 33.3336 19.712C31.7656 19.712 30.8042 19.1053 30.4496 17.892C30.3936 17.6493 30.3376 17.416 30.2816 17.192C30.2545 17.0297 30.2275 16.8478 30.2004 16.6463C29.1111 17.1367 27.9352 17.5406 26.5309 17.6311C26.8304 18.2241 27.2126 18.7497 27.6776 19.208C28.9656 20.4773 30.8509 21.112 33.3336 21.112C35.8162 21.112 37.7016 20.4773 38.9896 19.208C40.138 18.0762 40.7744 16.5066 40.8989 14.4992C39.9964 14.2832 39.038 14.15 37.9813 14.15Z" fill="#FF007A"/>
<path d="M44.6946 15.8485C44.3517 15.7032 44.0099 15.5593 43.6664 15.4204V19.404C43.6664 19.796 43.7784 20.1133 44.0024 20.356C44.2451 20.58 44.5811 20.692 45.0104 20.692H48.0064V17.1123C46.9043 16.7857 45.8789 16.3508 44.8741 15.9246L44.6946 15.8485Z" fill="#FF007A"/>
<path d="M57.6167 15.8378C56.3095 16.494 55.0004 17.1511 53.4384 17.463V19.404C53.4384 19.796 53.5504 20.1133 53.7744 20.356C54.0171 20.58 54.3531 20.692 54.7824 20.692H57.8064V15.7426L57.6167 15.8378Z" fill="#FF007A"/>
<path d="M73.9533 18.088C73.9533 19.376 74.6719 20.02 76.1093 20.02V20.692H70.8453C70.5839 20.692 70.3506 20.6267 70.1452 20.496C69.9399 20.3653 69.7999 20.1413 69.7253 19.824C69.3706 20.2533 68.8759 20.5707 68.2412 20.776C67.6253 21 67.0839 21.112 66.6172 21.112C65.5532 21.112 64.6012 20.916 63.7613 20.524C62.9213 20.1133 62.2026 19.5627 61.6052 18.872C61.0266 18.1813 60.5786 17.3787 60.2612 16.464C60.0827 15.9171 59.9575 15.3535 59.8857 14.7733C61.1049 14.273 62.4752 13.8652 64.1813 13.7136V15.54C64.1999 16.0627 64.2186 16.5013 64.2373 16.856C64.2746 17.192 64.3119 17.4627 64.3493 17.668C64.3866 17.8733 64.4239 18.032 64.4613 18.144C64.9092 19.1893 65.7119 19.712 66.8693 19.712C67.3546 19.712 67.8493 19.5907 68.3532 19.348C68.8572 19.0867 69.2773 18.7693 69.6133 18.396V14.2176C70.5759 14.5251 71.4132 14.9294 72.3025 15.3588C72.4584 15.4341 72.6159 15.5101 72.776 15.5866C73.1541 15.7671 73.5428 15.9477 73.9533 16.1228V18.088Z" fill="#FF007A"/>
<path d="M77.2318 17.1692C77.561 17.9884 78.0132 18.6773 78.5883 19.236C79.895 20.4867 81.7803 21.112 84.2443 21.112C84.7483 21.112 85.2803 21.084 85.8403 21.028C86.419 20.9907 87.007 20.888 87.6043 20.72C88.2203 20.5707 88.827 20.3373 89.4243 20.02C90.0217 19.7027 90.6003 19.264 91.1603 18.704L90.2643 17.612C89.4243 18.396 88.5284 18.9467 87.5763 19.264C86.643 19.5813 85.5977 19.74 84.4403 19.74C84.1603 19.74 83.871 19.7213 83.5723 19.684C83.2923 19.6467 83.0217 19.5813 82.7603 19.488C82.5177 19.376 82.2843 19.236 82.0603 19.068C81.855 18.8813 81.6683 18.6387 81.5003 18.34C81.463 18.2653 81.4163 18.144 81.3603 17.976C81.3297 17.8839 81.299 17.7694 81.2683 17.6325C79.678 17.5797 78.3617 17.4106 77.2318 17.1692Z" fill="#FF007A"/>
<path d="M94.4711 13.6199V19.404C94.4711 19.796 94.5831 20.1133 94.8071 20.356C95.0498 20.58 95.3858 20.692 95.8151 20.692H98.8111V12.6651C97.2399 12.7311 96.0456 13.0079 95.0346 13.3894C94.841 13.4624 94.6537 13.5394 94.4711 13.6199Z" fill="#FF007A"/>
<path d="M106.306 14.1081C106.347 15.09 106.512 15.9967 106.8 16.828C107.136 17.7987 107.63 18.6013 108.284 19.236C109.59 20.4867 111.476 21.112 113.94 21.112C114.444 21.112 114.976 21.084 115.536 21.028C116.114 20.9907 116.702 20.888 117.3 20.72C117.916 20.5707 118.522 20.3373 119.12 20.02C119.717 19.7027 120.296 19.264 120.856 18.704L119.96 17.612C119.12 18.396 118.224 18.9467 117.272 19.264C116.338 19.5813 115.293 19.74 114.136 19.74C113.856 19.74 113.566 19.7213 113.268 19.684C112.988 19.6467 112.717 19.5813 112.456 19.488C112.213 19.376 111.98 19.236 111.756 19.068C111.55 18.8813 111.364 18.6387 111.196 18.34C111.158 18.2653 111.112 18.144 111.056 17.976C111 17.808 110.944 17.5653 110.888 17.248C110.832 16.912 110.785 16.5013 110.748 16.016L110.746 15.9921C109.698 15.6398 108.784 15.2399 107.912 14.841C107.746 14.7649 107.581 14.689 107.418 14.6137C107.044 14.4408 106.676 14.271 106.306 14.1081Z" fill="#FF007A"/>
<path d="M124.166 16.5702V19.404C124.166 19.796 124.278 20.1133 124.502 20.356C124.745 20.58 125.081 20.692 125.51 20.692H128.506V14.4798C128.384 14.557 128.261 14.6354 128.136 14.7149L128.13 14.7189L128.128 14.7205L128.006 14.7981C127.113 15.3675 126.139 15.9689 124.699 16.4175C124.528 16.4708 124.35 16.5217 124.166 16.5702Z" fill="#FF007A"/>
<path d="M138.01 12.7396C138.565 13.2689 139.246 13.717 140.053 14.084C140.744 14.4013 141.416 14.7187 142.069 15.036C142.723 15.3347 143.329 15.6427 143.889 15.96C144.431 16.2587 144.851 16.5853 145.149 16.94C145.467 17.276 145.588 17.7147 145.513 18.256C145.439 18.704 145.187 19.0587 144.757 19.32C144.347 19.5813 143.684 19.712 142.769 19.712C142.023 19.712 141.257 19.5627 140.473 19.264C139.708 18.9653 138.98 18.5453 138.289 18.004L137.449 19.236C138.14 19.7773 138.961 20.2253 139.913 20.58C140.865 20.9347 141.817 21.112 142.769 21.112C144.953 21.112 146.577 20.7107 147.641 19.908C148.673 19.1251 149.214 18.0623 149.262 16.7196C148.839 16.6308 148.445 16.5303 148.073 16.4202C146.576 15.9775 145.469 15.3859 144.426 14.8217L144.36 14.7859C143.341 14.2343 142.383 13.716 141.117 13.3241C140.266 13.0607 139.265 12.8515 138.01 12.7396Z" fill="#FF007A"/>
</svg>
