<svg width="27" height="3" viewBox="0 0 27 3" fill="none" xmlns="http://www.w3.org/2000/svg">
<path fill-rule="evenodd" clip-rule="evenodd" d="M15.7882 1.33692C16.0681 1.41795 16.288 1.57201 16.5697 1.78107C16.6052 1.80812 16.641 1.8358 16.6774 1.8639L16.6775 1.86399C17.154 2.23222 17.7224 2.67138 18.7844 2.67138C19.8474 2.67138 20.4161 2.23156 20.8925 1.86316L20.8927 1.86302C20.9287 1.83522 20.9641 1.80784 20.9991 1.78107L21.0743 1.72506C21.4551 1.44074 21.6807 1.27226 22.2849 1.27226C22.8892 1.27226 23.1148 1.44075 23.4955 1.72507L23.5707 1.78107C23.6062 1.80814 23.6421 1.83586 23.6785 1.86398C24.155 2.23222 24.7233 2.67138 25.7854 2.67138C26.214 2.67138 26.5001 2.41719 26.5001 2.03525C26.5001 1.65375 26.2145 1.39912 25.7854 1.39912C25.2138 1.39912 24.9282 1.20837 24.4996 0.890305C24.4641 0.863234 24.4283 0.835522 24.3919 0.807397C23.9153 0.439159 23.347 0 22.2849 0C21.222 0 20.6532 0.439817 20.1768 0.808215L20.1767 0.808345C20.1407 0.836145 20.1053 0.863538 20.0702 0.890305L19.995 0.946321C19.6143 1.23063 19.3886 1.39912 18.7844 1.39912C18.2128 1.39912 17.9272 1.20837 17.4987 0.890305C17.4632 0.863266 17.4274 0.835588 17.391 0.807497L17.3909 0.807397C16.9144 0.439158 16.3461 0 15.284 0C15.2727 0 15.2614 4.9766e-05 15.2502 0.000148675C15.239 4.97635e-05 15.2278 0 15.2165 0C14.1536 0 13.5848 0.439816 13.1084 0.808213C13.0724 0.836059 13.0369 0.863496 13.0018 0.890305L12.9266 0.946324C12.553 1.22528 12.3287 1.39273 11.7497 1.39894C11.1707 1.39273 10.9464 1.22527 10.5729 0.946305L10.4977 0.890305C10.4622 0.863234 10.4263 0.835523 10.3899 0.807397C9.91341 0.439159 9.3451 0 8.283 0C8.2717 0 8.26045 4.97549e-05 8.24925 0.000148657C8.23806 4.97573e-05 8.22681 0 8.21551 0C7.15259 0 6.58382 0.439818 6.10742 0.808215C6.07141 0.83606 6.03593 0.863497 6.0008 0.890305L5.92561 0.946326C5.54486 1.23063 5.31922 1.39912 4.71503 1.39912C4.1108 1.39912 3.88516 1.23063 3.5044 0.946304L3.42925 0.890305C3.39375 0.863239 3.3579 0.835533 3.32151 0.807414L3.32148 0.807396C2.84495 0.439158 2.27664 0 1.21454 0C0.785943 0 0.499878 0.254188 0.499878 0.636131C0.500376 1.01763 0.785943 1.27226 1.21454 1.27226C1.78618 1.27226 2.07174 1.46301 2.50032 1.78107C2.53582 1.80814 2.57168 1.83585 2.60808 1.86398L2.60808 1.86398C3.08462 2.23222 3.65293 2.67138 4.71503 2.67138C5.77794 2.67138 6.3467 2.23156 6.82311 1.86316L6.82315 1.86313C6.85915 1.8353 6.89461 1.80787 6.92973 1.78107L7.00491 1.72505C7.28689 1.5145 7.4838 1.36748 7.81238 1.30536V1.31973C7.9349 1.2906 8.07547 1.27441 8.24733 1.27246C8.79789 1.27945 9.08073 1.46897 9.50128 1.78107C9.53674 1.80811 9.57255 1.83578 9.6089 1.86387L9.60905 1.86398C10.0856 2.23222 10.6539 2.67138 11.716 2.67138C11.7273 2.67138 11.7385 2.67133 11.7497 2.67123C11.7609 2.67133 11.7722 2.67138 11.7835 2.67138C12.8464 2.67138 13.4152 2.23156 13.8916 1.86316C13.9276 1.83532 13.9631 1.80788 13.9982 1.78107L14.0734 1.72505C14.4466 1.44639 14.6708 1.27899 15.2484 1.27246C15.4333 1.27476 15.6139 1.29696 15.7882 1.33692Z" fill="#BBBBBB"/>
</svg>
