<svg width="75" height="3" viewBox="0 0 75 3" fill="none" xmlns="http://www.w3.org/2000/svg">
<g id="line-wavy">
<path id="Vector" d="M0.879589 1.42877C1.58314 1.42877 1.93461 1.64298 2.46208 2.00017C3.07792 2.4286 3.78084 3 5.18787 3C6.59495 3 7.29844 2.42859 7.91366 2.00017C8.44117 1.64298 8.70493 1.42877 9.49616 1.42877C10.1997 1.42877 10.5512 1.64298 11.0787 2.00017C11.6945 2.4286 12.3974 3 13.8044 3C15.2115 3 15.915 2.42859 16.5302 2.00017C17.0577 1.64298 17.3215 1.42877 18.1127 1.42877C18.8163 1.42877 19.1677 1.64298 19.6952 2.00017C20.3111 2.4286 21.014 3 22.421 3C23.8281 3 24.5316 2.42859 25.1468 2.00017C25.6743 1.64298 25.9381 1.42877 26.7293 1.42877C27.4328 1.42877 27.7843 1.64298 28.3118 2.00017C28.9276 2.4286 29.6305 3 31.0376 3C32.4447 3 33.1481 2.42859 33.7634 2.00017C34.2909 1.64298 34.5546 1.42877 35.3459 1.42877C36.0494 1.42877 36.4009 1.64298 36.9284 2.00017C37.5442 2.4286 38.2471 3 39.6541 3C41.0612 3 41.7647 2.42859 42.3799 2.00017C42.9074 1.64298 43.1712 1.42877 43.9624 1.42877C44.7537 1.42877 45.0174 1.64298 45.5449 2.00017C46.1608 2.4286 46.8637 3 48.2707 3C49.6778 3 50.3813 2.42859 50.9965 2.00017C51.524 1.64298 51.7878 1.42877 52.579 1.42877C53.2825 1.42877 53.634 1.64298 54.1615 2.00017C54.7773 2.4286 55.4802 3 56.8873 3C58.2944 3 58.9978 2.42859 59.6131 2.00017C60.1406 1.64298 60.4043 1.42877 61.1956 1.42877C61.8991 1.42877 62.2506 1.64298 62.7781 2.00017C63.3939 2.4286 64.0968 3 65.5038 3C66.9109 3 67.6144 2.42859 68.2296 2.00017C68.7571 1.64298 69.0209 1.42877 69.8121 1.42877C70.6034 1.42877 70.8671 1.64298 71.3946 2.00017C72.0105 2.4286 72.7134 3 74.1204 3C74.6479 3 75 2.71454 75 2.28561C75 1.85718 74.6485 1.57123 74.1204 1.57123C73.4169 1.57123 73.0654 1.35702 72.5379 0.999826C71.9221 0.571396 71.2192 0 69.8121 0C68.405 0 67.7016 0.571408 67.0863 0.999826C66.5588 1.35702 66.2951 1.57123 65.5038 1.57123C64.8003 1.57123 64.4488 1.35702 63.9214 0.999826C63.3055 0.571396 62.6026 0 61.1956 0C59.7885 0 59.085 0.571408 58.4698 0.999826C57.9423 1.35702 57.6785 1.57123 56.8873 1.57123C56.096 1.57123 55.8323 1.35702 55.3048 0.999826C54.6889 0.571396 53.986 0 52.579 0C51.1719 0 50.4684 0.571408 49.8532 0.999826C49.3257 1.35702 49.0619 1.57123 48.2707 1.57123C47.4794 1.57123 47.2157 1.35702 46.6882 0.999826C46.0724 0.571396 45.3695 0 43.9624 0C42.5553 0 41.8519 0.571408 41.2366 0.999826C40.7091 1.35702 40.4454 1.57123 39.6541 1.57123C38.9506 1.57123 38.5991 1.35702 38.0716 0.999826C37.4558 0.571396 36.7529 0 35.3459 0C33.9388 0 33.2353 0.571408 32.6201 0.999826C32.0926 1.35702 31.8288 1.57123 31.0376 1.57123C30.334 1.57123 29.9826 1.35702 29.4551 0.999826C28.8392 0.571396 28.1363 0 26.7293 0C25.3222 0 24.6187 0.571408 24.0035 0.999826C23.476 1.35702 23.2122 1.57123 22.421 1.57123C21.7175 1.57123 21.366 1.35702 20.8385 0.999826C20.2227 0.571396 19.5198 0 18.1127 0C16.7056 0 16.0022 0.571408 15.3869 0.999826C14.8594 1.35702 14.5957 1.57123 13.8044 1.57123C13.1009 1.57123 12.7494 1.35702 12.2219 0.999826C11.6061 0.571396 10.9032 0 9.49616 0C8.08908 0 7.38559 0.571408 6.77037 0.999826C6.24286 1.35702 5.9791 1.57123 5.18787 1.57123C4.39661 1.57123 4.13286 1.35702 3.60538 0.999826C2.98954 0.571396 2.28662 0 0.879589 0C0.352081 0 0 0.285458 0 0.714386C0.000613338 1.14282 0.352081 1.42877 0.879589 1.42877Z" fill="black"/>
</g>
</svg>
